<svg width="130" height="40" viewBox="0 0 130 40" fill="none" xmlns="http://www.w3.org/2000/svg">
<g clip-path="url(#clip0_881_23)">
<rect width="130" height="40" rx="20" fill="white"/>
<path fill-rule="evenodd" clip-rule="evenodd" d="M22.6547 2.55078C22.3805 2.41406 22.2487 2.09643 22.3455 1.80571C22.4422 1.51499 22.7381 1.33975 23.0396 1.39463C31.6553 2.96323 38.1875 10.505 38.1875 19.5737C38.1875 29.7791 29.9144 38.0522 19.709 38.0522C9.6342 38.0522 1.44267 29.9896 1.23454 19.9645C1.22818 19.658 1.44842 19.3935 1.75105 19.3443C2.05367 19.2951 2.34635 19.4762 2.43741 19.7689C4.26515 25.6451 9.7466 29.9104 16.2227 29.9104C24.1944 29.9104 30.6568 23.448 30.6568 15.4763C30.6568 9.81668 27.3996 4.91673 22.6547 2.55078ZM36.9567 19.5737C36.9567 12.5118 32.7122 6.44037 26.6351 3.77272C29.8572 6.64147 31.8876 10.8214 31.8876 15.4763C31.8876 24.1278 24.8741 31.1412 16.2227 31.1412C10.6658 31.1412 5.78575 28.2481 3.00491 23.8868C4.91996 31.3252 11.6727 36.8214 19.709 36.8214C29.2347 36.8214 36.9567 29.0993 36.9567 19.5737ZM16.4813 3.3237C18.6177 3.3237 20.7126 3.91326 22.5354 5.02745C24.3582 6.14165 25.8382 7.73726 26.8123 9.63858C27.7865 11.5399 28.2171 13.6732 28.0566 15.8035C27.8962 17.9338 27.151 19.9786 25.903 21.7125C24.6551 23.4465 22.9529 24.8025 20.9837 25.6311C19.0146 26.4597 16.855 26.7289 14.7428 26.4089C12.6305 26.089 10.6475 25.1923 9.01216 23.8177C7.3768 22.443 6.1525 20.6438 5.47409 18.618C5.36616 18.2957 5.53993 17.947 5.8622 17.839C6.18448 17.7311 6.53323 17.9049 6.64115 18.2271C7.24764 20.0381 8.34213 21.6466 9.8041 22.8755C11.2661 24.1044 13.0388 24.906 14.9271 25.192C16.8154 25.4781 18.746 25.2375 20.5064 24.4967C22.2667 23.7559 23.7885 22.5437 24.9041 20.9936C26.0197 19.4435 26.6859 17.6155 26.8293 15.7111C26.9727 13.8066 26.5878 11.8995 25.717 10.1998C24.8461 8.50007 23.523 7.07364 21.8935 6.07758C20.264 5.08152 18.3912 4.55447 16.4813 4.55447C16.1415 4.55447 15.8659 4.27895 15.8659 3.93908C15.8659 3.59922 16.1415 3.3237 16.4813 3.3237ZM19.2246 7.83008C19.0677 8.13155 19.1849 8.50315 19.4864 8.66006C20.4506 9.16189 21.2881 9.87633 21.9356 10.7494C22.583 11.6224 23.0236 12.6313 23.2239 13.6996C23.4242 14.7679 23.3791 15.8678 23.0918 16.9161C22.8046 17.9645 22.2828 18.9338 21.5659 19.7508C20.849 20.5678 19.9558 21.2112 18.9537 21.6323C17.9516 22.0534 16.867 22.2412 15.7816 22.1814C14.6963 22.1217 13.6388 21.8161 12.689 21.2876C11.7391 20.7591 10.9219 20.0216 10.299 19.1308C10.1042 18.8523 9.7205 18.7844 9.44199 18.9792C9.16347 19.174 9.09558 19.5576 9.29035 19.8362C10.0202 20.8798 10.9777 21.7439 12.0905 22.3631C13.2034 22.9823 14.4424 23.3404 15.714 23.4103C16.9856 23.4803 18.2565 23.2603 19.4305 22.767C20.6046 22.2736 21.6511 21.5198 22.4911 20.5625C23.331 19.6053 23.9423 18.4696 24.2789 17.2414C24.6154 16.0131 24.6683 14.7245 24.4336 13.4728C24.1989 12.2211 23.6827 11.0391 22.9241 10.0162C22.1655 8.99332 21.1843 8.15626 20.0546 7.56831C19.7531 7.4114 19.3815 7.5286 19.2246 7.83008ZM34.3737 19.1319C34.0846 19.1319 33.8502 18.8976 33.8502 18.6085C33.8502 18.3194 34.0846 18.085 34.3737 18.085C34.6628 18.085 34.8971 18.3194 34.8971 18.6085C34.8971 18.8976 34.6628 19.1319 34.3737 19.1319ZM13.6238 3.43958C13.6238 3.72868 13.8581 3.96305 14.1472 3.96305C14.4363 3.96305 14.6707 3.72868 14.6707 3.43958C14.6707 3.15049 14.4363 2.91612 14.1472 2.91612C13.8581 2.91612 13.6238 3.15049 13.6238 3.43958ZM8.52003 7.10381C8.23093 7.10381 7.99657 6.86945 7.99657 6.58035C7.99657 6.29125 8.23093 6.05689 8.52003 6.05689C8.80913 6.05689 9.04349 6.29125 9.04349 6.58035C9.04349 6.86945 8.80913 7.10381 8.52003 7.10381ZM10.483 4.48651C10.483 4.92016 10.8346 5.2717 11.2682 5.2717C11.7019 5.2717 12.0534 4.92016 12.0534 4.48651C12.0534 4.05286 11.7019 3.70131 11.2682 3.70131C10.8346 3.70131 10.483 4.05286 10.483 4.48651ZM5.96866 11.4982C5.02909 11.4982 4.26741 10.7365 4.26741 9.79694C4.26741 8.85736 5.02909 8.09569 5.96866 8.09569C6.90824 8.09569 7.66991 8.85736 7.66991 9.79694C7.66991 10.7365 6.90824 11.4982 5.96866 11.4982ZM3.41489 13.5228C3.45839 13.5184 3.50251 13.5162 3.54715 13.5162C4.2699 13.5162 4.8558 14.1021 4.8558 14.8249C4.8558 15.5476 4.2699 16.1335 3.54715 16.1335C3.35195 16.1335 3.16673 16.0908 3.00034 16.0142C3.31202 16.4059 3.79285 16.657 4.33234 16.657C5.27192 16.657 6.03359 15.8953 6.03359 14.9557C6.03359 14.0162 5.27192 13.2545 4.33234 13.2545C3.99447 13.2545 3.67961 13.353 3.41489 13.5228ZM25.7583 32.5165C25.4692 32.5165 25.2348 32.2822 25.2348 31.9931C25.2348 31.704 25.4692 31.4696 25.7583 31.4696C26.0474 31.4696 26.2817 31.704 26.2817 31.9931C26.2817 32.2822 26.0474 32.5165 25.7583 32.5165ZM29.5425 28.9161C29.5425 29.2052 29.7769 29.4396 30.066 29.4396C30.3551 29.4396 30.5894 29.2052 30.5894 28.9161C30.5894 28.627 30.3551 28.3927 30.066 28.3927C29.7769 28.3927 29.5425 28.627 29.5425 28.9161ZM33.1429 24.6704C32.8538 24.6704 32.6194 24.436 32.6194 24.1469C32.6194 23.8578 32.8538 23.6235 33.1429 23.6235C33.432 23.6235 33.6664 23.8578 33.6664 24.1469C33.6664 24.436 33.432 24.6704 33.1429 24.6704ZM19.8686 15.0963C19.5454 14.9911 19.1981 15.1678 19.0929 15.491C18.9114 16.0488 18.6042 16.5574 18.1951 16.9777C17.7859 17.398 17.2857 17.7187 16.7331 17.9152C16.1804 18.1117 15.59 18.1786 15.0074 18.1109C14.4247 18.0431 13.8654 17.8425 13.3726 17.5245C13.087 17.3402 12.7061 17.4223 12.5218 17.7079C12.3376 17.9934 12.4197 18.3743 12.7052 18.5586C13.3564 18.9788 14.0954 19.2439 14.8652 19.3334C15.635 19.4229 16.4151 19.3345 17.1453 19.0749C17.8755 18.8153 18.5364 18.3915 19.077 17.8362C19.6176 17.2809 20.0234 16.6089 20.2633 15.8719C20.3685 15.5488 20.1918 15.2015 19.8686 15.0963ZM19.3566 13.3083C19.422 13.5859 19.7 13.7578 19.9775 13.6924C20.2551 13.627 20.427 13.349 20.3616 13.0715L20.3613 13.0701C20.2958 12.7926 20.0178 12.6207 19.7402 12.6862C19.4627 12.7517 19.2908 13.0297 19.3563 13.3073L19.3566 13.3083ZM10.9501 16.2988C11.0688 16.5581 11.3752 16.672 11.6344 16.5534C11.8937 16.4347 12.0077 16.1283 11.889 15.869L11.8885 15.868C11.77 15.6087 11.4636 15.4947 11.2043 15.6133C10.945 15.7319 10.8309 16.0382 10.9495 16.2975L10.9498 16.2982L10.9501 16.2988ZM18.2934 11.4062C18.4955 11.6073 18.8224 11.6065 19.0235 11.4043C19.2246 11.2022 19.2238 10.8753 19.0216 10.6742L19.0206 10.6732C18.8184 10.4722 18.4916 10.4731 18.2905 10.6753C18.0895 10.8775 18.0904 11.2044 18.2926 11.4054L18.2934 11.4062ZM10.537 13.5836C10.5008 13.8665 10.7008 14.1251 10.9836 14.1613C11.2664 14.1975 11.525 13.9975 11.5612 13.7147L11.5614 13.7136C11.5976 13.4308 11.3978 13.1721 11.1149 13.1358C10.8321 13.0996 10.5735 13.2994 10.5372 13.5823L10.537 13.5836ZM16.3858 10.3527C16.6637 10.4167 16.9408 10.2433 17.0048 9.96546C17.0688 9.6876 16.8954 9.41047 16.6175 9.34649L16.6161 9.34618C16.3383 9.28227 16.0612 9.45574 15.9973 9.73362C15.9334 10.0115 16.1068 10.2886 16.3847 10.3525L16.3858 10.3527ZM11.6205 11.06C11.4403 11.2811 11.4735 11.6063 11.6945 11.7864C11.9156 11.9665 12.2408 11.9334 12.4209 11.7123L12.4213 11.7119L12.4216 11.7115C12.6018 11.4905 12.5687 11.1653 12.3477 10.9851C12.1268 10.8049 11.8015 10.838 11.6213 11.0589L11.6205 11.06ZM14.2096 10.4659C14.4794 10.3734 14.6231 10.0798 14.5306 9.81008C14.4382 9.54034 14.1446 9.39663 13.8748 9.48908L13.8735 9.48953C13.6038 9.58206 13.4602 9.87571 13.5527 10.1454C13.6452 10.4151 13.9389 10.5588 14.2086 10.4662L14.2091 10.4661L14.2096 10.4659Z" fill="url(#paint0_linear_881_23)"/>
<path d="M49.5947 29.6121C48.9333 29.6121 48.2976 29.5496 47.6876 29.4247C47.085 29.2998 46.5375 29.105 46.0451 28.8404C45.5527 28.5759 45.1412 28.2305 44.8105 27.8042L46.5081 26.0846C46.6624 26.283 46.8609 26.4814 47.1034 26.6798C47.3532 26.8856 47.6693 27.0546 48.0514 27.1869C48.4336 27.3265 48.9112 27.3964 49.4845 27.3964C50.0283 27.3964 50.495 27.2898 50.8845 27.0767C51.2813 26.8709 51.5863 26.5769 51.7994 26.1948C52.0199 25.8126 52.1301 25.368 52.1301 24.8609V24.6074H54.875V25.0263C54.875 26.0258 54.6398 26.8672 54.1695 27.5507C53.6991 28.2342 53.0671 28.7486 52.2734 29.094C51.4797 29.4394 50.5868 29.6121 49.5947 29.6121ZM52.1301 24.7728V23.1964C52.064 23.3581 51.895 23.5859 51.623 23.8798C51.3511 24.1738 50.9837 24.4421 50.5207 24.6846C50.065 24.9197 49.5286 25.0373 48.9112 25.0373C48.0441 25.0373 47.2761 24.8315 46.6073 24.42C45.9386 24.0011 45.4131 23.4316 45.031 22.7114C44.6562 21.9838 44.4688 21.1644 44.4688 20.2531C44.4688 19.3418 44.6562 18.5261 45.031 17.8059C45.4131 17.0783 45.9386 16.5051 46.6073 16.0862C47.2761 15.6673 48.0441 15.4579 48.9112 15.4579C49.5139 15.4579 50.0356 15.5607 50.4766 15.7665C50.9249 15.9649 51.285 16.2001 51.5569 16.472C51.8362 16.7366 52.0162 16.9754 52.097 17.1886V15.7224H54.875V24.7728H52.1301ZM47.2136 20.2531C47.2136 20.7602 47.3275 21.2085 47.5553 21.598C47.7832 21.9801 48.0845 22.2778 48.4593 22.4909C48.8341 22.704 49.2419 22.8106 49.6829 22.8106C50.1459 22.8106 50.5574 22.704 50.9175 22.4909C51.2776 22.2704 51.5606 21.9691 51.7663 21.587C51.9795 21.1975 52.086 20.7528 52.086 20.2531C52.086 19.7534 51.9795 19.3124 51.7663 18.9303C51.5606 18.5408 51.2776 18.2358 50.9175 18.0153C50.5574 17.7948 50.1459 17.6846 49.6829 17.6846C49.2419 17.6846 48.8341 17.7948 48.4593 18.0153C48.0845 18.2284 47.7832 18.5298 47.5553 18.9193C47.3275 19.3014 47.2136 19.746 47.2136 20.2531Z" fill="#5A3145"/>
<path d="M60.7442 20.0547C60.7442 20.8631 60.9058 21.5098 61.2292 21.9948C61.5526 22.4725 62.0743 22.7114 62.7945 22.7114C63.5221 22.7114 64.0476 22.4725 64.3709 21.9948C64.6943 21.5098 64.856 20.8631 64.856 20.0547V15.7224H67.6118V20.3744C67.6118 21.3077 67.4244 22.1271 67.0496 22.8326C66.6748 23.5308 66.1273 24.0746 65.4071 24.4641C64.6943 24.8462 63.8234 25.0373 62.7945 25.0373C61.773 25.0373 60.9022 24.8462 60.182 24.4641C59.4691 24.0746 58.9253 23.5308 58.5505 22.8326C58.1757 22.1271 57.9883 21.3077 57.9883 20.3744V15.7224H60.7442V20.0547Z" fill="#5A3145"/>
<path d="M70.9118 24.7728V15.7224H73.7008V24.7728H70.9118ZM72.3449 13.3854C71.8819 13.3854 71.4887 13.2237 71.1654 12.9004C70.8494 12.577 70.6914 12.1912 70.6914 11.7429C70.6914 11.2946 70.8531 10.9051 71.1764 10.5744C71.4998 10.2437 71.8893 10.0784 72.3449 10.0784C72.6462 10.0784 72.9218 10.1555 73.1717 10.3099C73.4215 10.4568 73.6236 10.6553 73.778 10.9051C73.9323 11.155 74.0095 11.4343 74.0095 11.7429C74.0095 12.1912 73.8441 12.577 73.5134 12.9004C73.19 13.2237 72.8005 13.3854 72.3449 13.3854Z" fill="#5A3145"/>
<path d="M81.054 25.0373C80.1942 25.0373 79.4372 24.8315 78.7832 24.42C78.1365 24.0011 77.6294 23.4316 77.2619 22.7114C76.9018 21.9838 76.7218 21.1644 76.7218 20.2531C76.7218 19.3418 76.9018 18.5261 77.2619 17.8059C77.6294 17.0783 78.1365 16.5051 78.7832 16.0862C79.4372 15.6673 80.1942 15.4579 81.054 15.4579C81.664 15.4579 82.2042 15.5571 82.6745 15.7555C83.1522 15.9539 83.5343 16.1891 83.8209 16.461C84.1076 16.7329 84.2766 16.9754 84.328 17.1886V9.60435H87.139V24.7728H84.3611V23.1964C84.2435 23.4536 84.0267 23.7255 83.7107 24.0121C83.3947 24.2987 83.0089 24.5413 82.5532 24.7397C82.0976 24.9381 81.5979 25.0373 81.054 25.0373ZM81.8477 22.8106C82.3181 22.8106 82.7406 22.704 83.1154 22.4909C83.4902 22.2704 83.7842 21.9691 83.9973 21.587C84.2178 21.1975 84.328 20.7528 84.328 20.2531C84.328 19.7534 84.2178 19.3124 83.9973 18.9303C83.7842 18.5408 83.4902 18.2358 83.1154 18.0153C82.7406 17.7948 82.3181 17.6846 81.8477 17.6846C81.4141 17.6846 81.0173 17.7948 80.6572 18.0153C80.2971 18.2284 80.0068 18.5298 79.7863 18.9193C79.5732 19.3014 79.4666 19.746 79.4666 20.2531C79.4666 20.7602 79.5732 21.2085 79.7863 21.598C80.0068 21.9801 80.2971 22.2778 80.6572 22.4909C81.0173 22.704 81.4141 22.8106 81.8477 22.8106Z" fill="#5A3145"/>
<path d="M92.1089 20.8704C92.131 21.282 92.2412 21.6494 92.4396 21.9728C92.6381 22.2961 92.9247 22.5497 93.2995 22.7334C93.6816 22.9171 94.1373 23.009 94.6664 23.009C95.1441 23.009 95.563 22.9502 95.9231 22.8326C96.2905 22.715 96.5992 22.5717 96.8491 22.4027C97.1063 22.2263 97.2974 22.0573 97.4223 21.8956L98.5798 23.6153C98.374 23.8725 98.0984 24.1113 97.753 24.3318C97.4149 24.5449 96.9813 24.714 96.4522 24.8389C95.9304 24.9712 95.2764 25.0373 94.49 25.0373C93.4979 25.0373 92.627 24.8426 91.8774 24.4531C91.1278 24.0636 90.5436 23.5014 90.1247 22.7665C89.7058 22.0316 89.4963 21.157 89.4963 20.1429C89.4963 19.261 89.6838 18.4673 90.0586 17.7618C90.4334 17.0489 90.9772 16.4867 91.69 16.0752C92.4102 15.6636 93.2738 15.4579 94.2806 15.4579C95.2286 15.4579 96.048 15.6416 96.7388 16.009C97.437 16.3691 97.9771 16.8983 98.3593 17.5964C98.7414 18.2946 98.9325 19.1471 98.9325 20.1539C98.9325 20.2127 98.9288 20.3339 98.9215 20.5177C98.9215 20.694 98.9141 20.8116 98.8994 20.8704H92.1089ZM96.3089 19.1397C96.3016 18.9046 96.2281 18.651 96.0884 18.3791C95.9562 18.1072 95.7467 17.8757 95.4601 17.6846C95.1735 17.4935 94.7913 17.398 94.3136 17.398C93.836 17.398 93.4428 17.4899 93.1341 17.6736C92.8328 17.8573 92.605 18.0851 92.4507 18.3571C92.2963 18.6216 92.2081 18.8825 92.1861 19.1397H96.3089Z" fill="#5A3145"/>
<path d="M100.858 15.7224H102.49V13.2642C102.49 12.3676 102.666 11.6327 103.019 11.0595C103.372 10.4789 103.827 10.049 104.386 9.7697C104.944 9.48309 105.521 9.33978 106.117 9.33978C106.844 9.33978 107.403 9.43899 107.792 9.63742C108.182 9.83584 108.421 9.97915 108.509 10.0673L107.428 12.1398C107.392 12.0883 107.289 12.0075 107.12 11.8972C106.958 11.7797 106.741 11.7209 106.469 11.7209C106.278 11.7209 106.091 11.7686 105.907 11.8642C105.723 11.9597 105.573 12.1361 105.455 12.3933C105.338 12.6505 105.279 13.029 105.279 13.5287V15.7224H107.649V18.0484H105.279V24.7728H102.49V18.0484H100.858V15.7224Z" fill="#5A3145"/>
<path d="M112.693 20.0547C112.693 20.8631 112.854 21.5098 113.178 21.9948C113.501 22.4725 114.023 22.7114 114.743 22.7114C115.471 22.7114 115.996 22.4725 116.319 21.9948C116.643 21.5098 116.804 20.8631 116.804 20.0547V15.7224H119.56V20.3744C119.56 21.3077 119.373 22.1271 118.998 22.8326C118.623 23.5308 118.076 24.0746 117.356 24.4641C116.643 24.8462 115.772 25.0373 114.743 25.0373C113.722 25.0373 112.851 24.8462 112.13 24.4641C111.418 24.0746 110.874 23.5308 110.499 22.8326C110.124 22.1271 109.937 21.3077 109.937 20.3744V15.7224H112.693V20.0547Z" fill="#5A3145"/>
<path d="M125.539 24.7728H122.728V9.60435H125.539V24.7728Z" fill="#5A3145"/>
</g>
<defs>
<linearGradient id="paint0_linear_881_23" x1="26.0984" y1="3.864" x2="9.83248" y2="30.895" gradientUnits="userSpaceOnUse">
<stop stop-color="#E3A857"/>
<stop offset="1" stop-color="#6B2547"/>
</linearGradient>
<clipPath id="clip0_881_23">
<rect width="130" height="40" fill="white"/>
</clipPath>
</defs>
</svg>
