<svg width="41" height="40" viewBox="0 0 41 40" fill="none" xmlns="http://www.w3.org/2000/svg">
<g clip-path="url(#clip0_881_24)">
<rect x="0.191406" width="40" height="40" rx="20" fill="white"/>
<path fill-rule="evenodd" clip-rule="evenodd" d="M22.8461 2.55078C22.5719 2.41406 22.4401 2.09643 22.5369 1.80571C22.6336 1.51499 22.9295 1.33975 23.231 1.39463C31.8467 2.96323 38.3789 10.505 38.3789 19.5737C38.3789 29.7791 30.1058 38.0522 19.9004 38.0522C9.8256 38.0522 1.63408 29.9896 1.42595 19.9645C1.41958 19.658 1.63983 19.3935 1.94245 19.3443C2.24508 19.2951 2.53775 19.4762 2.62882 19.7689C4.45656 25.6451 9.93801 29.9104 16.4141 29.9104C24.3858 29.9104 30.8482 23.448 30.8482 15.4763C30.8482 9.81668 27.591 4.91673 22.8461 2.55078ZM37.1481 19.5737C37.1481 12.5118 32.9036 6.44037 26.8265 3.77272C30.0486 6.64147 32.079 10.8214 32.079 15.4763C32.079 24.1278 25.0656 31.1412 16.4141 31.1412C10.8573 31.1412 5.97715 28.2481 3.19631 23.8868C5.11136 31.3252 11.8641 36.8214 19.9004 36.8214C29.4261 36.8214 37.1481 29.0993 37.1481 19.5737ZM16.6727 3.3237C18.8091 3.3237 20.904 3.91326 22.7268 5.02745C24.5496 6.14165 26.0296 7.73726 27.0037 9.63858C27.9779 11.5399 28.4085 13.6732 28.248 15.8035C28.0876 17.9338 27.3424 19.9786 26.0944 21.7125C24.8465 23.4465 23.1443 24.8025 21.1751 25.6311C19.206 26.4597 17.0464 26.7289 14.9342 26.4089C12.8219 26.089 10.8389 25.1923 9.20357 23.8177C7.56821 22.443 6.34391 20.6438 5.6655 18.618C5.55757 18.2957 5.73133 17.947 6.05361 17.839C6.37589 17.7311 6.72463 17.9049 6.83256 18.2271C7.43904 20.0381 8.53353 21.6466 9.9955 22.8755C11.4575 24.1044 13.2302 24.906 15.1185 25.192C17.0068 25.4781 18.9374 25.2375 20.6978 24.4967C22.4581 23.7559 23.9799 22.5437 25.0955 20.9936C26.2111 19.4435 26.8773 17.6155 27.0207 15.7111C27.1642 13.8066 26.7792 11.8995 25.9084 10.1998C25.0375 8.50007 23.7144 7.07364 22.0849 6.07758C20.4554 5.08152 18.5826 4.55447 16.6727 4.55447C16.3329 4.55447 16.0573 4.27895 16.0573 3.93908C16.0573 3.59922 16.3329 3.3237 16.6727 3.3237ZM19.416 7.83008C19.2591 8.13155 19.3763 8.50315 19.6778 8.66006C20.642 9.16189 21.4795 9.87633 22.127 10.7494C22.7745 11.6224 23.215 12.6313 23.4153 13.6996C23.6156 14.7679 23.5705 15.8678 23.2832 16.9161C22.996 17.9645 22.4742 18.9338 21.7573 19.7508C21.0404 20.5678 20.1472 21.2112 19.1451 21.6323C18.143 22.0534 17.0584 22.2412 15.973 22.1814C14.8877 22.1217 13.8302 21.8161 12.8804 21.2876C11.9305 20.7591 11.1133 20.0216 10.4904 19.1308C10.2956 18.8523 9.91191 18.7844 9.63339 18.9792C9.35487 19.174 9.28698 19.5576 9.48176 19.8362C10.2116 20.8798 11.1691 21.7439 12.282 22.3631C13.3948 22.9823 14.6338 23.3404 15.9054 23.4103C17.177 23.4803 18.4479 23.2603 19.6219 22.767C20.796 22.2736 21.8425 21.5198 22.6825 20.5625C23.5224 19.6053 24.1337 18.4696 24.4703 17.2414C24.8068 16.0131 24.8597 14.7245 24.625 13.4728C24.3903 12.2211 23.8742 11.0391 23.1155 10.0162C22.3569 8.99332 21.3757 8.15626 20.246 7.56831C19.9445 7.4114 19.5729 7.5286 19.416 7.83008ZM34.5651 19.1319C34.276 19.1319 34.0416 18.8976 34.0416 18.6085C34.0416 18.3194 34.276 18.085 34.5651 18.085C34.8542 18.085 35.0885 18.3194 35.0885 18.6085C35.0885 18.8976 34.8542 19.1319 34.5651 19.1319ZM13.8152 3.43958C13.8152 3.72868 14.0495 3.96305 14.3386 3.96305C14.6277 3.96305 14.8621 3.72868 14.8621 3.43958C14.8621 3.15049 14.6277 2.91612 14.3386 2.91612C14.0495 2.91612 13.8152 3.15049 13.8152 3.43958ZM8.71143 7.10381C8.42233 7.10381 8.18797 6.86945 8.18797 6.58035C8.18797 6.29125 8.42233 6.05689 8.71143 6.05689C9.00053 6.05689 9.2349 6.29125 9.2349 6.58035C9.2349 6.86945 9.00053 7.10381 8.71143 7.10381ZM10.6744 4.48651C10.6744 4.92016 11.026 5.2717 11.4596 5.2717C11.8933 5.2717 12.2448 4.92016 12.2448 4.48651C12.2448 4.05286 11.8933 3.70131 11.4596 3.70131C11.026 3.70131 10.6744 4.05286 10.6744 4.48651ZM6.16007 11.4982C5.2205 11.4982 4.45882 10.7365 4.45882 9.79694C4.45882 8.85736 5.2205 8.09569 6.16007 8.09569C7.09964 8.09569 7.86132 8.85736 7.86132 9.79694C7.86132 10.7365 7.09964 11.4982 6.16007 11.4982ZM3.6063 13.5228C3.64979 13.5184 3.69391 13.5162 3.73855 13.5162C4.4613 13.5162 5.04721 14.1021 5.04721 14.8249C5.04721 15.5476 4.4613 16.1335 3.73855 16.1335C3.54335 16.1335 3.35814 16.0908 3.19175 16.0142C3.50342 16.4059 3.98426 16.657 4.52375 16.657C5.46332 16.657 6.225 15.8953 6.225 14.9557C6.225 14.0162 5.46332 13.2545 4.52375 13.2545C4.18588 13.2545 3.87101 13.353 3.6063 13.5228ZM25.9497 32.5165C25.6606 32.5165 25.4262 32.2822 25.4262 31.9931C25.4262 31.704 25.6606 31.4696 25.9497 31.4696C26.2388 31.4696 26.4732 31.704 26.4732 31.9931C26.4732 32.2822 26.2388 32.5165 25.9497 32.5165ZM29.7339 28.9161C29.7339 29.2052 29.9683 29.4396 30.2574 29.4396C30.5465 29.4396 30.7808 29.2052 30.7808 28.9161C30.7808 28.627 30.5465 28.3927 30.2574 28.3927C29.9683 28.3927 29.7339 28.627 29.7339 28.9161ZM33.3343 24.6704C33.0452 24.6704 32.8108 24.436 32.8108 24.1469C32.8108 23.8578 33.0452 23.6235 33.3343 23.6235C33.6234 23.6235 33.8578 23.8578 33.8578 24.1469C33.8578 24.436 33.6234 24.6704 33.3343 24.6704ZM20.06 15.0963C19.7368 14.9911 19.3895 15.1678 19.2844 15.491C19.1028 16.0488 18.7956 16.5574 18.3865 16.9777C17.9773 17.398 17.4772 17.7187 16.9245 17.9152C16.3718 18.1117 15.7814 18.1786 15.1988 18.1109C14.6161 18.0431 14.0568 17.8425 13.564 17.5245C13.2784 17.3402 12.8975 17.4223 12.7132 17.7079C12.529 17.9934 12.6111 18.3743 12.8967 18.5586C13.5478 18.9788 14.2868 19.2439 15.0566 19.3334C15.8264 19.4229 16.6065 19.3345 17.3367 19.0749C18.0669 18.8153 18.7278 18.3915 19.2684 17.8362C19.809 17.2809 20.2148 16.6089 20.4547 15.8719C20.5599 15.5488 20.3832 15.2015 20.06 15.0963ZM19.548 13.3083C19.6134 13.5859 19.8914 13.7578 20.1689 13.6924C20.4465 13.627 20.6184 13.349 20.553 13.0715L20.5527 13.0701C20.4872 12.7926 20.2092 12.6207 19.9317 12.6862C19.6541 12.7517 19.4822 13.0297 19.5477 13.3073L19.548 13.3083ZM11.1415 16.2988C11.2602 16.5581 11.5666 16.672 11.8258 16.5534C12.0851 16.4347 12.1991 16.1283 12.0804 15.869L12.08 15.868C11.9614 15.6087 11.655 15.4947 11.3957 15.6133C11.1364 15.7319 11.0223 16.0382 11.1409 16.2975L11.1412 16.2982L11.1415 16.2988ZM18.4848 11.4062C18.6869 11.6073 19.0138 11.6065 19.2149 11.4043C19.416 11.2022 19.4152 10.8753 19.213 10.6742L19.212 10.6732C19.0099 10.4722 18.683 10.4731 18.4819 10.6753C18.2809 10.8775 18.2818 11.2044 18.484 11.4054L18.4848 11.4062ZM10.7284 13.5836C10.6922 13.8665 10.8922 14.1251 11.175 14.1613C11.4578 14.1975 11.7164 13.9975 11.7526 13.7147L11.7528 13.7136C11.789 13.4308 11.5892 13.1721 11.3064 13.1358C11.0235 13.0996 10.7649 13.2994 10.7286 13.5823L10.7284 13.5836ZM16.5772 10.3527C16.8551 10.4167 17.1322 10.2433 17.1962 9.96546C17.2602 9.6876 17.0868 9.41047 16.8089 9.34649L16.8076 9.34618C16.5297 9.28227 16.2526 9.45574 16.1887 9.73362C16.1248 10.0115 16.2982 10.2886 16.5761 10.3525L16.5772 10.3527ZM11.8119 11.06C11.6317 11.2811 11.6649 11.6063 11.8859 11.7864C12.107 11.9665 12.4322 11.9334 12.6123 11.7123L12.6127 11.7119L12.613 11.7115C12.7932 11.4905 12.7601 11.1653 12.5392 10.9851C12.3182 10.8049 11.9929 10.838 11.8128 11.0589L11.8119 11.06ZM14.401 10.4659C14.6708 10.3734 14.8145 10.0798 14.722 9.81008C14.6296 9.54034 14.336 9.39663 14.0662 9.48908L14.0649 9.48953C13.7952 9.58206 13.6516 9.87571 13.7441 10.1454C13.8366 10.4151 14.1303 10.5588 14.4 10.4662L14.4005 10.4661L14.401 10.4659Z" fill="url(#paint0_linear_881_24)"/>
</g>
<defs>
<linearGradient id="paint0_linear_881_24" x1="26.2898" y1="3.864" x2="10.0239" y2="30.895" gradientUnits="userSpaceOnUse">
<stop stop-color="#E3A857"/>
<stop offset="1" stop-color="#6B2547"/>
</linearGradient>
<clipPath id="clip0_881_24">
<rect width="40" height="40" fill="white" transform="translate(0.191406)"/>
</clipPath>
</defs>
</svg>
